<svg width="41" height="41" viewBox="0 0 41 41" fill="none" xmlns="http://www.w3.org/2000/svg">
<path fill-rule="evenodd" clip-rule="evenodd" d="M20.6064 40.4956C31.4557 40.2691 40.181 31.4035 40.181 20.5C40.181 9.4543 31.2267 0.5 20.181 0.5C9.27747 0.5 0.411856 9.22524 0.185403 20.0745H0.180908V40.5H20.181H20.6064V40.4956Z" fill="#B399FF"/>
<path fill-rule="evenodd" clip-rule="evenodd" d="M20 36C28.8366 36 36 28.8366 36 20C36 11.1634 28.8366 4 20 4C11.1634 4 4 11.1634 4 20C4 28.8366 11.1634 36 20 36ZM20 34.5455C28.0332 34.5455 34.5455 28.0332 34.5455 20C34.5455 11.9668 28.0332 5.45455 20 5.45455C11.9668 5.45455 5.45455 11.9668 5.45455 20C5.45455 28.0332 11.9668 34.5455 20 34.5455Z" fill="#FFF08E"/>
<path fill-rule="evenodd" clip-rule="evenodd" d="M34.5455 20C34.5455 28.0332 28.0332 34.5455 20 34.5455C11.9668 34.5455 5.45455 28.0332 5.45455 20C5.45455 11.9668 11.9668 5.45455 20 5.45455C28.0332 5.45455 34.5455 11.9668 34.5455 20ZM14.7983 21.4998C15.6016 21.4998 16.2528 20.8485 16.2528 20.0452C16.2528 19.2419 15.6016 18.5907 14.7983 18.5907C13.995 18.5907 13.3438 19.2419 13.3438 20.0452C13.3438 20.8485 13.995 21.4998 14.7983 21.4998ZM25.2031 21.5C26.0064 21.5 26.6577 20.8488 26.6577 20.0455C26.6577 19.2421 26.0064 18.5909 25.2031 18.5909C24.3998 18.5909 23.7486 19.2421 23.7486 20.0455C23.7486 20.8488 24.3998 21.5 25.2031 21.5Z" fill="#FFF08E"/>
<path d="M26.6577 20.0455C26.6577 20.8488 26.0064 21.5 25.2031 21.5C24.3998 21.5 23.7486 20.8488 23.7486 20.0455C23.7486 19.2421 24.3998 18.5909 25.2031 18.5909C26.0064 18.5909 26.6577 19.2421 26.6577 20.0455Z" fill="black"/>
<path d="M16.2528 20.0452C16.2528 20.8485 15.6016 21.4998 14.7983 21.4998C13.995 21.4998 13.3438 20.8485 13.3438 20.0452C13.3438 19.2419 13.995 18.5907 14.7983 18.5907C15.6016 18.5907 16.2528 19.2419 16.2528 20.0452Z" fill="black"/>
<path d="M21.4545 20.0452C21.4545 20.8485 20.8033 21.4998 20 21.4998C19.1967 21.4998 18.5455 20.8485 18.5455 20.0452C18.5455 19.2419 19.1967 18.5907 20 18.5907C20.8033 18.5907 21.4545 19.2419 21.4545 20.0452Z" fill="black"/>
</svg>
