<svg width="32" height="32" viewBox="0 0 32 32" fill="none" xmlns="http://www.w3.org/2000/svg">
<path d="M10.7983 12.7782C11.6016 12.7782 12.2528 12.127 12.2528 11.3236C12.2528 10.5203 11.6016 9.86908 10.7983 9.86908C9.99497 9.86908 9.34375 10.5203 9.34375 11.3236C9.34375 12.127 9.99497 12.7782 10.7983 12.7782Z" fill="#423FDE"/>
<path d="M21.2031 12.7784C22.0064 12.7784 22.6577 12.1272 22.6577 11.3239C22.6577 10.5205 22.0064 9.86932 21.2031 9.86932C20.3998 9.86932 19.7486 10.5205 19.7486 11.3239C19.7486 12.1272 20.3998 12.7784 21.2031 12.7784Z" fill="#423FDE"/>
<path d="M8.83665 16.8359C8.83665 16.4343 8.51104 16.1087 8.10938 16.1087C7.70771 16.1087 7.3821 16.4343 7.3821 16.8359C7.3821 21.559 11.1496 25.4089 15.8229 25.4089C20.4962 25.4089 24.2636 21.559 24.2636 16.8359C24.2636 16.4343 23.938 16.1087 23.5364 16.1087C23.1347 16.1087 22.8091 16.4343 22.8091 16.8359C22.8091 20.7791 19.6697 23.9544 15.8229 23.9544C11.9761 23.9544 8.83665 20.7791 8.83665 16.8359Z" fill="#423FDE"/>
<path fill-rule="evenodd" clip-rule="evenodd" d="M16 32C24.8366 32 32 24.8366 32 16C32 7.16344 24.8366 0 16 0C7.16344 0 0 7.16344 0 16C0 24.8366 7.16344 32 16 32ZM16 30.5455C24.0332 30.5455 30.5455 24.0332 30.5455 16C30.5455 7.96677 24.0332 1.45455 16 1.45455C7.96677 1.45455 1.45455 7.96677 1.45455 16C1.45455 24.0332 7.96677 30.5455 16 30.5455Z" fill="#423FDE"/>
</svg>
